<?xml version="1.0" encoding="UTF-8" standalone="no"?>
<!DOCTYPE svg PUBLIC "-//W3C//DTD SVG 1.1//EN" "http://www.w3.org/Graphics/SVG/1.1/DTD/svg11.dtd">
<svg width="100%" height="100%" viewBox="0 0 856 376" version="1.1" xmlns="http://www.w3.org/2000/svg" xmlns:xlink="http://www.w3.org/1999/xlink" xml:space="preserve" xmlns:serif="http://www.serif.com/" style="fill-rule:evenodd;clip-rule:evenodd;stroke-linejoin:round;stroke-miterlimit:1.41421;">
    <g id="Artboard1" transform="matrix(0.954536,0,0,0.888623,-118.862,-298.18)">
        <rect x="124.523" y="335.553" width="896.04" height="422.789" style="fill:none;"/>
        <g transform="matrix(1.03662,0,0,1.12534,285.906,-55.5595)">
            <rect x="545.799" y="610.509" width="97.519" height="18.583" style="fill:rgb(252,91,69);"/>
        </g>
        <g transform="matrix(1.03662,0,0,1.12534,284.888,-17.7724)">
            <rect x="545.799" y="610.509" width="97.519" height="18.583" style="fill:rgb(252,91,69);"/>
        </g>
        <g transform="matrix(1.03662,0,0,1.12534,283.826,23.4896)">
            <rect x="545.799" y="610.509" width="97.519" height="18.583" style="fill:rgb(252,91,69);"/>
        </g>
        <g transform="matrix(0.860489,0,0,1.21786,-102.384,-84.1202)">
            <path d="M1037.33,433.364L954.148,497.296L802.252,452.875L802.252,688.119L1037.33,688.119L1037.33,433.364Z" style="fill:rgb(252,91,69);fill-opacity:0.835294;"/>
        </g>
        <g transform="matrix(0.5799,-0.93721,0.872493,0.622913,-294.091,960.397)">
            <path d="M899.616,430.164L816.623,405.781L859.37,590.364L956.418,608.068L899.616,430.164Z" style="fill:rgb(252,91,69);"/>
        </g>
        <g transform="matrix(0.5799,-0.93721,0.872493,0.622913,-700.091,999.749)">
            <path d="M849.455,415.283L792.365,426.676L874.179,593.142L937.116,589.408L849.455,415.283Z" style="fill:rgb(252,91,69);"/>
        </g>
        <g transform="matrix(1.04763,0,0,1.41885,-49.4872,-234.141)">
            <path d="M965.82,521.217C941.6,522.198 902.29,521.217 850.942,521.217C850.893,521.217 801.603,478.397 801.127,477.736L801.127,696.404L965.82,696.404L965.82,521.217Z" style="fill:rgb(252,91,69);fill-opacity:0.788235;"/>
        </g>
        <g transform="matrix(1.04763,0,0,1.12534,-94.692,3.81795)">
            <path d="M996.004,378.874L843.274,389.949L894.63,446.323L1061.04,446.323L996.004,378.874Z" style="fill:rgb(252,91,69);"/>
        </g>
        <g transform="matrix(1.04763,0,0,1.12534,-529.572,51.4348)">
            <path d="M953.534,388.784L846.33,388.784L890.044,445.68L988.421,433.222L953.534,388.784Z" style="fill:rgb(252,91,69);"/>
        </g>
        <g transform="matrix(1.02678,0,0,1.11845,-37.2219,-92.1021)">
            <path d="M610.013,586.825L753.062,755.372L610.013,755.372L610.013,586.825Z" style="fill:rgb(252,91,69);fill-opacity:0.764706;"/>
        </g>
        <g transform="matrix(1.05023,0,0,1.12534,358.483,-84.9685)">
            <ellipse cx="328.011" cy="608.881" rx="10.973" ry="11.43"/>
        </g>
        <g transform="matrix(1.04763,0,0,1.417,302.959,-297.764)">
            <path d="M366.53,662.012C385.176,662.012 400.315,651.745 400.315,666.515C400.315,681.285 385.176,693.276 366.53,693.276C347.883,693.276 332.744,681.285 332.744,666.515C332.744,651.745 347.883,662.012 366.53,662.012Z"/>
        </g>
        <g transform="matrix(1.05023,0,0,1.12534,322.405,-85.0908)">
            <ellipse cx="328.011" cy="608.881" rx="10.973" ry="11.43"/>
        </g>
        <g transform="matrix(0.617887,0,0,0.672729,217.473,251.06)">
            <rect x="295.188" y="582.225" width="179.678" height="162.424" style="fill:rgb(252,91,69);fill-opacity:0.788235;"/>
        </g>
        <g transform="matrix(0.629753,0,0,0.676464,324.827,248.615)">
            <path d="M464.656,569.731L295.188,582.225L295.188,744.649L464.656,744.649L464.656,569.731Z" style="fill:rgb(252,91,69);fill-opacity:0.905882;"/>
        </g>
        <g transform="matrix(0.641015,0,0,0.686859,259.029,268.509)">
            <ellipse cx="328.011" cy="608.881" rx="10.973" ry="11.43"/>
        </g>
        <g transform="matrix(0.512636,0,0,0.693379,292.407,248.415)">
            <path d="M366.53,662.012C385.176,662.012 400.315,651.745 400.315,666.515C400.315,681.285 385.176,693.276 366.53,693.276C347.883,693.276 332.744,681.285 332.744,666.515C332.744,651.745 347.883,662.012 366.53,662.012Z"/>
        </g>
        <g transform="matrix(0.569304,0,0,0.610019,304.137,314.445)">
            <ellipse cx="328.011" cy="608.881" rx="10.973" ry="11.43"/>
        </g>
        <g transform="matrix(1.04763,0,0,1.12534,-48.0614,-94.4254)">
            <rect x="556.719" y="694.42" width="44.404" height="12.03" style="fill:rgb(252,91,69);"/>
        </g>
        <g transform="matrix(1.04763,0,0,1.12534,-47.3224,-71.652)">
            <rect x="556.719" y="694.42" width="44.404" height="12.03" style="fill:rgb(252,91,69);"/>
        </g>
        <g transform="matrix(1.04763,0,0,1.12534,-46.9134,-51.5411)">
            <rect x="556.719" y="694.42" width="44.404" height="12.03" style="fill:rgb(252,91,69);"/>
        </g>
        <g transform="matrix(1.01972,0,0,1.12534,-77.5592,-92.8205)">
            <rect x="229.42" y="516.95" width="197.404" height="236.127" style="fill:rgb(252,91,69);fill-opacity:0.854902;"/>
        </g>
        <g transform="matrix(1.04763,0,0,1.417,-124.323,-274.582)">
            <path d="M366.53,662.012C385.176,662.012 400.315,651.745 400.315,666.515C400.315,681.285 385.176,693.276 366.53,693.276C347.883,693.276 332.744,681.285 332.744,666.515C332.744,651.745 347.883,662.012 366.53,662.012Z"/>
        </g>
        <g transform="matrix(1.04763,0,0,1.12534,-49.5458,-94.4108)">
            <rect x="387.963" y="519.013" width="89.276" height="234.955" style="fill:rgb(252,91,69);fill-opacity:0.941176;"/>
        </g>
        <g transform="matrix(1.05023,0,0,1.12534,-108.531,-57.1757)">
            <ellipse cx="328.011" cy="608.881" rx="10.973" ry="11.43"/>
        </g>
        <g transform="matrix(1.05023,0,0,1.12534,-64.343,-57.7175)">
            <ellipse cx="328.011" cy="608.881" rx="10.973" ry="11.43"/>
        </g>
    </g>
</svg>
